# xmcd
#
# Track frame offsets:
#	150
#	29957
#	59825
#	85462
#	107807
#	137877
#	163807
#	186747
#	203190
#	220250
#	253192
#	281252
#	308512
#	325435
#
# Disc length: 4708 seconds
#
# Revision: 0
# Processed by: cddbd v1.5.1PL2 Copyright (c) Steve Scherf et al.
# Submitted via: dBpowerAMP V4.0
#
DISCID=e812620e
DTITLE=Big Beat - The New Techno Generation
DYEAR=1997
DGENRE=Big Beat
TTITLE0=Dub Pistol - Anarchy
TTITLE1=Metro L.A - Hold Your Wig (Peter Tall Remix)
TTITLE2=Monky Mafia - Metro Love 
TTITLE3=David Holmes - Gritty Shaker (Richard Fearless Remix)
TTITLE4=Agent Provocateur - Sabotage (Monkey Mafia Bastard Remix)
TTITLE5=Fat Boy Slim - Every Body Needs A 303
TTITLE6=Les Rythmes Digitales - Jacques Your Body (Make Me Sweat)
TTITLE7=Basco - Can't Get Enough (Edit)
TTITLE8=Underworld - Pearl's Girl
TTITLE9=The Future Sound Of London - We Have Explosive (pt1)
TTITLE10=Wink - Higher State Of Consiousness (Tweekin'Acid Funk Mix)
TTITLE11=Coldcut - More Beats And Pieces (John McEntire Tortoise Mix)
TTITLE12=Death In Vegas (Radio Mix)
TTITLE13=Curtis - Casino On Mars
EXTD=
EXTT0=
EXTT1=
EXTT2=
EXTT3=
EXTT4=
EXTT5=
EXTT6=
EXTT7=
EXTT8=
EXTT9=
EXTT10=
EXTT11=
EXTT12=
EXTT13=
PLAYORDER=
